<!-- Your sprite definitions (already in your HTML somewhere) -->
<svg xmlns="http://www.w3.org/2000/svg" xmlns:xlink="http://www.w3.org/1999/xlink"  style="display: none;">
  <!-- Android Icon -->
  <symbol id="android2" viewBox="0 0 15.000232 16.00062" class="icon">
    <path d="M10.213 1.471l.691-1.26q.069-.124-.048-.192-.128-.057-.195.058l-.7 1.27A4.8 4.8 0 0 0 8.005.941q-1.032 0-1.956.404l-.7-1.27Q5.281-.037 5.154.02q-.117.069-.049.193l.691 1.259a4.25 4.25 0 0 0-1.673 1.476A3.7 3.7 0 0 0 3.5 5.02h9q0-1.125-.623-2.072a4.27 4.27 0 0 0-1.664-1.476ZM6.22 3.303a.37.37 0 0 1-.267.11.35.35 0 0 1-.263-.11.37.37 0 0 1-.107-.264.37.37 0 0 1 .107-.265.35.35 0 0 1 .263-.11q.155 0 .267.11a.36.36 0 0 1 .112.265.36.36 0 0 1-.112.264m4.101 0a.35.35 0 0 1-.262.11.37.37 0 0 1-.268-.11.36.36 0 0 1-.112-.264q0-.154.112-.265a.37.37 0 0 1 .268-.11q.155 0 .262.11a.37.37 0 0 1 .107.265q0 .153-.107.264M3.5 11.77q0 .441.311.75.311.306.76.307h.758l.01 2.182q0 .414.292.703a.96.96 0 0 0 .7.288.97.97 0 0 0 .71-.288.95.95 0 0 0 .292-.703v-2.182h1.343v2.182q0 .414.292.703a.97.97 0 0 0 .71.288.97.97 0 0 0 .71-.288.95.95 0 0 0 .292-.703v-2.182h.76q.436 0 .749-.308.31-.307.311-.75V5.365h-9zm10.495-6.587a.98.98 0 0 0-.702.278.9.9 0 0 0-.293.685v4.063q0 .406.293.69a.97.97 0 0 0 .702.284q.42 0 .712-.284a.92.92 0 0 0 .293-.69V6.146a.9.9 0 0 0-.293-.685 1 1 0 0 0-.712-.278m-12.702.283a1 1 0 0 1 .712-.283q.41 0 .702.283a.9.9 0 0 1 .293.68v4.063a.93.93 0 0 1-.288.69.97.97 0 0 1-.707.284 1 1 0 0 1-.712-.284.92.92 0 0 1-.293-.69V6.146q0-.396.293-.68" />
  </symbol>

  <!-- Airplane Icon -->
  <symbol  id="airplane" viewBox="0 0 16 16" class='icon'>
    <path d="M6.428 1.151C6.708.591 7.213 0 8 0s1.292.592 1.572 1.151C9.861 1.73 10 2.431 10 3v3.691l5.17 2.585a1.5 1.5 0 0 1 .83 1.342V12a.5.5 0 0 1-.582.493l-5.507-.918-.375 2.253 1.318 1.318A.5.5 0 0 1 10.5 16h-5a.5.5 0 0 1-.354-.854l1.319-1.318-.376-2.253-5.507.918A.5.5 0 0 1 0 12v-1.382a1.5 1.5 0 0 1 .83-1.342L6 6.691V3c0-.568.14-1.271.428-1.849"/>
  </symbol>
</svg>

<!-- How to use these icons somewhere on the page: -->
<svg width="30" height="30" fill="green">
  <use xlink:href="#android2" />
</svg>

<svg width="30" height="30" fill="blue" style="margin-left: 10px;">
  <use xlink:href="#airplane" />
</svg>
